
      <svg data-logo="logo" xmlns="http://www.w3.org/2000/svg" viewBox="0 0 224 42">
        <g id="logogram" transform="translate(0, 1) rotate(0) "><path d="M19.2614 5.82192V0H0.905273V40H19.2614V34.1781C15.5012 34.1781 11.8949 32.6842 9.23601 30.0253C6.57711 27.3664 5.08335 23.7603 5.08335 20C5.08335 16.2397 6.57711 12.6334 9.23601 9.97459C11.8949 7.31568 15.5012 5.82192 19.2614 5.82192Z" fill="#394149"/><path d="M19.2614 5.8219V34.1781C23.0217 34.1781 26.628 32.6842 29.2869 30.0253C31.9458 27.3664 33.4395 23.7603 33.4395 20C33.4395 16.2397 31.9458 12.6334 29.2869 9.97457C26.628 7.31567 23.0217 5.8219 19.2614 5.8219Z" fill="#394149"/></g>
        <g id="logotype" transform="translate(40, 7.5)"><path fill="#111111" d="M18.04 11.32L18.04 11.32Q16.75 11.32 15.77 13.00Q14.79 14.68 14.79 16.99L14.79 16.99L14.79 26.37L17.27 26.37L17.27 27L6.35 27L6.35 26.37L8.28 26.37L8.28 10.97L6.35 10.97L6.35 10.34L14.79 10.34L14.79 13.70Q15.24 11.91 16.54 10.95Q17.83 9.99 19.48 9.99Q21.12 9.99 22.15 10.92Q23.19 11.84 23.19 13.54Q23.19 15.24 22.42 16.15Q21.65 17.06 20.05 17.06Q18.46 17.06 17.71 16.01Q16.96 14.96 17.52 13.10L17.52 13.10L18.77 13.10Q19.65 11.32 18.04 11.32ZM34.81 20.11L34.81 20.11L34.81 17.13Q34.81 13.73 34.44 12.18Q34.07 10.62 32.74 10.62L32.74 10.62Q31.97 10.62 31.50 11.06Q31.03 11.49 30.82 12.51L30.82 12.51Q30.50 14.08 30.50 17.30L30.50 17.30L30.50 20.04Q30.50 23.85 30.73 24.62Q30.96 25.39 31.20 25.88L31.20 25.88Q31.59 26.72 32.71 26.72L32.71 26.72Q34.07 26.72 34.49 25.14L34.49 25.14Q34.81 24.02 34.81 20.11ZM32.64 27.35Q28.26 27.35 26.02 25.11Q23.78 22.87 23.78 18.69Q23.78 14.50 26.18 12.25Q28.58 9.99 32.92 9.99Q37.26 9.99 39.39 12.07Q41.53 14.15 41.53 18.42L41.53 18.42Q41.53 27.35 32.64 27.35L32.64 27.35ZM62.98 26.37L62.98 27L55 27L54.62 24.45Q54.05 25.84 52.95 26.60Q51.85 27.35 49.68 27.35L49.68 27.35Q44.26 27.35 44.26 21.50L44.26 21.50L44.26 10.97L42.30 10.97L42.30 10.34L50.77 10.34L50.77 22.34Q50.77 24.45 51.06 25.11Q51.36 25.77 52.25 25.77Q53.15 25.77 53.84 24.69Q54.55 23.61 54.55 21.68L54.55 21.68L54.55 10.97L52.94 10.97L52.94 10.34L61.06 10.34L61.06 26.37L62.98 26.37ZM65.43 21.99L65.43 21.99L65.43 10.97L63.50 10.97L63.50 10.34L65.43 10.34L65.43 5.82L71.94 4.21L71.94 10.34L76.49 10.34L76.49 10.97L71.94 10.97L71.94 22.77Q71.94 24.41 72.27 25.18Q72.61 25.95 73.66 25.95Q74.70 25.95 75.49 24.90Q76.28 23.85 76.53 22.03L76.53 22.03L77.12 22.10Q76.84 24.52 75.58 25.93Q74.32 27.35 71.41 27.35Q68.51 27.35 66.97 26.20Q65.43 25.04 65.43 21.99ZM86.68 27.35Q82.16 27.35 79.90 25.02Q77.65 22.70 77.65 18.55Q77.65 14.40 80.18 12.19Q82.72 9.99 86.64 9.99L86.64 9.99Q94.59 9.99 94.27 17.97L94.27 17.97L84.40 17.97L84.40 19.34Q84.40 22.77 85.28 24.52Q86.15 26.27 88.32 26.27L88.32 26.27Q92.38 26.27 93.64 21.93L93.64 21.93L94.27 22.03Q93.61 24.55 91.87 25.95Q90.14 27.35 86.68 27.35L86.68 27.35ZM84.44 15.55L84.44 17.27L88.04 17.27L88.04 15.55Q88.04 12.72 87.71 11.69Q87.38 10.65 86.38 10.65Q85.38 10.65 84.91 11.76Q84.44 12.86 84.44 15.55L84.44 15.55ZM109.18 2.81L109.18 2.81Q103.76 2.81 103.76 13.28L103.76 13.28L103.76 16.04Q103.76 21.02 105.19 23.83Q106.63 26.65 109.43 26.65L109.43 26.65Q113.28 26.65 116.50 19.16L116.50 19.16L117.13 19.16L116.88 26.96L116.50 26.96Q116.29 26.58 116.11 26.42Q115.94 26.27 115.60 26.27Q115.27 26.27 113.07 26.81Q110.86 27.35 108.59 27.35L108.59 27.35Q102.88 27.35 99.75 24.27Q96.62 21.19 96.62 15.01Q96.62 8.83 99.89 5.47Q103.16 2.11 108.69 2.11L108.69 2.11Q110.83 2.11 112.87 2.66Q114.92 3.20 115.27 3.20Q115.62 3.20 115.80 3.04Q115.97 2.88 116.18 2.50L116.18 2.50L116.57 2.50L116.85 10.09L116.22 10.09Q114.64 6.56 112.98 4.69Q111.32 2.81 109.18 2.81ZM131.37 11.32L131.37 11.32Q130.08 11.32 129.10 13.00Q128.12 14.68 128.12 16.99L128.12 16.99L128.12 26.37L130.60 26.37L130.60 27L119.68 27L119.68 26.37L121.61 26.37L121.61 10.97L119.68 10.97L119.68 10.34L128.12 10.34L128.12 13.70Q128.57 11.91 129.87 10.95Q131.16 9.99 132.81 9.99Q134.45 9.99 135.48 10.92Q136.52 11.84 136.52 13.54Q136.52 15.24 135.75 16.15Q134.98 17.06 133.38 17.06Q131.79 17.06 131.04 16.01Q130.29 14.96 130.85 13.10L130.85 13.10L132.11 13.10Q132.98 11.32 131.37 11.32ZM144.88 18.77L144.88 18.77L145.90 18.77L145.90 16.08Q145.90 12.75 145.53 11.62Q145.16 10.48 144.11 10.48L144.11 10.48Q143.48 10.48 142.97 10.81Q142.47 11.14 142.47 11.72Q142.47 12.30 142.68 12.89L142.68 12.89L143.55 12.89Q143.83 13.63 143.83 14.66Q143.83 15.69 142.96 16.45Q142.08 17.20 140.75 17.20L140.75 17.20Q137.74 17.20 137.74 14.29L137.74 14.29Q137.74 9.99 145.06 9.99L145.06 9.99Q149.22 9.99 150.81 11.41Q152.41 12.82 152.41 16.60L152.41 16.60L152.41 23.71Q152.41 25.53 153.42 25.53L153.42 25.53Q154.61 25.53 154.82 21.93L154.82 21.93L155.35 21.96Q155.21 25.04 154.19 26.20Q153.18 27.35 150.87 27.35L150.87 27.35Q146.67 27.35 146.04 24.76L146.04 24.76Q145.58 26.09 144.67 26.72Q143.76 27.35 142.01 27.35L142.01 27.35Q136.83 27.35 136.83 23.11L136.83 23.11Q136.83 20.63 138.81 19.70Q140.79 18.77 144.88 18.77ZM143.48 23.08Q143.48 24.90 143.67 25.43Q143.87 25.95 144.41 25.95Q144.95 25.95 145.42 25.06Q145.90 24.16 145.90 22.59L145.90 22.59L145.90 19.34L145.65 19.34Q143.48 19.34 143.48 22.52L143.48 22.52L143.48 23.08ZM166.30 0.54L166.30 0.54Q164.97 0.54 164.55 1.54Q164.13 2.53 164.13 4.74L164.13 4.74L164.13 10.34L168.75 10.34L168.75 10.97L164.13 10.97L164.13 26.37L168.40 26.37L168.40 27L155.70 27L155.70 26.37L157.62 26.37L157.62 10.97L155.59 10.97L155.59 10.34L157.62 10.34L157.62 10.20Q157.62 5.16 159.55 2.55Q161.47-0.06 165.99-0.06L165.99-0.06Q168.96-0.06 170.26 1.12Q171.55 2.29 171.55 3.83Q171.55 5.37 170.75 6.14Q169.94 6.91 168.61 6.91Q167.28 6.91 166.56 6.23Q165.85 5.54 165.85 4.65Q165.85 3.76 166.06 2.92L166.06 2.92L167.39 2.92Q168.09 0.54 166.30 0.54ZM170.85 21.99L170.85 21.99L170.85 10.97L168.93 10.97L168.93 10.34L170.85 10.34L170.85 5.82L177.36 4.21L177.36 10.34L181.91 10.34L181.91 10.97L177.36 10.97L177.36 22.77Q177.36 24.41 177.69 25.18Q178.03 25.95 179.08 25.95Q180.13 25.95 180.91 24.90Q181.70 23.85 181.95 22.03L181.95 22.03L182.54 22.10Q182.26 24.52 181.00 25.93Q179.74 27.35 176.84 27.35Q173.93 27.35 172.39 26.20Q170.85 25.04 170.85 21.99Z"/></g>
        
      </svg>
    